<svg width="16" height="16" viewBox="0 0 16 16" fill="none" xmlns="http://www.w3.org/2000/svg">
<path d="M4.43301 14.1782L0.866025 8L4.43301 1.8218L11.567 1.8218L15.134 8L11.567 14.1782L4.43301 14.1782Z" stroke="#4B85C6" stroke-width="1.5"/>
<path d="M16 8C16 12.4183 12.4183 16 8 16C3.58172 16 0 12.4183 0 8C0 3.58172 3.58172 0 8 0C12.4183 0 16 3.58172 16 8ZM3.41222 8C3.41222 10.5338 5.46624 12.5878 8 12.5878C10.5338 12.5878 12.5878 10.5338 12.5878 8C12.5878 5.46624 10.5338 3.41222 8 3.41222C5.46624 3.41222 3.41222 5.46624 3.41222 8Z" fill="#C4C4C4"/>
</svg>
